<svg height="512pt" viewBox="0 0 512 512" width="512pt" 
  xmlns="http://www.w3.org/2000/svg">
  <path fill="white" d="m138.433594 198.664062-102.796875 102.773438c-47.515625 47.507812-47.515625 124.804688 0 172.3125l2.566406 2.566406c23.019531 23.007813 53.621094 35.683594 86.175781 35.683594 32.554688 0 63.160156-12.675781 86.175782-35.683594l98.910156-98.886718c-7.246094 1.046874-14.613282 1.585937-22.066406 1.585937-20.503907 0-40.382813-4.039063-58.734376-11.734375l-62.300781 62.285156c-11.214843 11.210938-26.125 17.386719-41.984375 17.386719-15.855468 0-30.765625-6.171875-41.980468-17.382813-11.199219-11.195312-17.367188-26.101562-17.367188-41.976562 0-15.871094 6.167969-30.78125 17.363281-41.976562l100.230469-100.203126c11.214844-11.214843 26.125-17.386718 41.984375-17.386718 15.335937 0 29.773437 5.785156 40.851563 16.304687.402343.328125.789062.675781 1.164062 1.050781 5.550781 5.546876 12.925781 8.601563 20.773438 8.601563 7.84375 0 15.222656-3.054687 20.769531-8.601563l22.441406-22.433593c-4.886719-7.835938-10.65625-15.121094-17.257813-21.71875l-2.5625-2.5625c-23.019531-23.015625-53.625-35.6875-86.175781-35.6875-32.554687 0-63.160156 12.671875-86.179687 35.683593zm0 0"/>
  <path fill="white" d="m476.367188 210.5625c22.980468-22.96875 35.632812-53.566406 35.632812-86.15625 0-32.585938-12.65625-63.183594-35.632812-86.15625l-2.5625-2.5625c-23.019532-23.011719-53.625-35.6875-86.179688-35.6875-32.550781 0-63.15625 12.675781-86.175781 35.6875l-98.910157 98.882812c7.246094-1.046874 14.617188-1.585937 22.070313-1.585937 20.5 0 40.378906 4.042969 58.730469 11.734375l62.300781-62.285156c11.214844-11.210938 26.125-17.386719 41.984375-17.386719s30.769531 6.171875 41.984375 17.386719c11.199219 11.195312 17.363281 26.101562 17.363281 41.972656 0 15.875-6.164062 30.78125-17.363281 41.972656l-100.230469 100.207032c-11.214844 11.214843-26.125 17.386718-41.984375 17.386718-15.332031 0-29.769531-5.785156-40.847656-16.304687-.402344-.324219-.792969-.675781-1.167969-1.050781-5.546875-5.546876-12.925781-8.601563-20.769531-8.601563-7.847656 0-15.222656 3.054687-20.769531 8.601563l-22.441406 22.4375c4.882812 7.832031 10.652343 15.113281 17.253906 21.714843l2.566406 2.566407c23.019531 23.011718 53.621094 35.683593 86.175781 35.683593 32.554688 0 63.160157-12.671875 86.175781-35.683593zm0 0"/>
</svg>