<svg height="512pt" viewBox="0 0 512 512" width="512pt" 
  xmlns="http://www.w3.org/2000/svg">
  <path fill="white" d="m474.054688 40.359375-2.414063-2.414063c-50.589844-50.59375-132.910156-50.59375-183.503906 0l-86.835938 86.835938c-13.222656 13.21875-23.472656 29.222656-29.9375 46.644531-17.003906 6.285157-32.945312 16.238281-46.582031 29.875l-86.835938 86.835938c-50.59375 50.59375-50.59375 132.914062 0 183.503906l2.414063 2.414063c25.292969 25.296874 58.523437 37.945312 91.75 37.945312 33.230469 0 66.457031-12.648438 91.753906-37.945312l86.835938-86.835938c13.222656-13.21875 23.46875-29.222656 29.933593-46.644531 17.003907-6.285157 32.949219-16.238281 46.585938-29.875l86.835938-86.835938c50.59375-50.59375 50.59375-132.914062 0-183.503906zm-184.515626 325.699219-86.835937 86.839844c-38.925781 38.921874-102.261719 38.921874-141.1875 0l-2.414063-2.414063c-38.921874-38.925781-38.921874-102.265625 0-141.1875l86.839844-86.835937c38.921875-38.925782 102.257813-38.925782 141.183594-.003907l2.414062 2.417969c8.605469 8.605469 15.582032 18.742188 20.53125 29.765625-4.601562 1.761719-9.527343 2.695313-14.601562 2.695313-10.898438 0-21.144531-4.246094-28.851562-11.953126-.484376-.480468-1.003907-.914062-1.53125-1.316406-13.183594-12.46875-30.335938-19.324218-48.550782-19.324218-18.890625 0-36.652344 7.355468-50.011718 20.714843l-84.421876 84.421875c-13.359374 13.359375-20.71875 31.121094-20.71875 50.011719s7.359376 36.652344 20.71875 50.011719c13.355469 13.359375 31.117188 20.714844 50.011719 20.714844 18.890625 0 36.652344-7.355469 50.007813-20.714844l84.488281-84.488282c9.492187 2.148438 19.171875 3.230469 28.859375 3.230469 2.710938 0 5.421875-.09375 8.128906-.261719-3.996094 6.378907-8.707031 12.324219-14.058594 17.675782zm44.546876-130.441406c-6.105469-11.710938-13.996094-22.511719-23.382813-31.898438l-2.417969-2.417969c-9.628906-9.628906-20.410156-17.421875-31.902344-23.386719l74.65625-74.652343c7.707032-7.707031 17.953126-11.953125 28.851563-11.953125s21.144531 4.246094 28.851563 11.949218c7.6875 7.691407 11.921874 17.9375 11.921874 28.851563 0 10.917969-4.230468 21.164063-11.921874 28.851563zm-156.171876 40.761718c6.105469 11.714844 13.996094 22.515625 23.386719 31.902344l2.414063 2.417969c9.628906 9.628906 20.414062 17.421875 31.902344 23.386719l-74.65625 74.652343c-7.707032 7.707031-17.953126 11.953125-28.851563 11.953125s-21.144531-4.246094-28.847656-11.949218c-7.707031-7.710938-11.953125-17.957032-11.953125-28.851563 0-10.898437 4.246094-21.144531 11.953125-28.851563zm274.984376-73.675781-86.839844 86.835937c-38.925782 38.925782-102.261719 38.925782-141.183594.003907l-2.414062-2.417969c-8.605469-8.605469-15.582032-18.746094-20.53125-29.765625 4.601562-1.761719 9.527343-2.695313 14.605468-2.695313 10.894532 0 21.140625 4.246094 28.847656 11.953126.484376.484374 1.003907.914062 1.53125 1.316406 13.183594 12.46875 30.335938 19.324218 48.554688 19.324218 18.890625 0 36.652344-7.355468 50.007812-20.714843l84.425782-84.421875c13.339844-13.34375 20.6875-31.101563 20.6875-50.011719 0-18.90625-7.347656-36.667969-20.691406-50.011719-13.355469-13.355468-31.117188-20.714844-50.007813-20.714844-18.894531 0-36.65625 7.359376-50.011719 20.71875l-84.488281 84.488282c-12.148437-2.75-24.609375-3.742188-36.988281-2.972656 3.996094-6.375 8.703125-12.324219 14.058594-17.675782l86.835937-86.839844c38.925781-38.921874 102.261719-38.921874 141.183594 0l2.414062 2.414063c38.925781 38.925781 38.925781 102.261719.003907 141.1875zm0 0"/>
</svg>