<?xml version="1.0" encoding="UTF-8" standalone="no"?>
<!DOCTYPE svg PUBLIC "-//W3C//DTD SVG 20010904//EN"
              "http://www.w3.org/TR/2001/REC-SVG-20010904/DTD/svg10.dtd">

<svg xmlns="http://www.w3.org/2000/svg"
     width="7.11111in" height="7.11111in"
     viewBox="0 0 640 640">
  <path id="Sélection"
        fill="white" stroke="none" stroke-width="1"
        d="M 301.00,0.00
           C 301.00,0.00 339.00,0.00 339.00,0.00
             339.00,0.00 339.00,37.00 339.00,37.00
             339.00,37.00 640.00,37.00 640.00,37.00
             640.00,37.00 640.00,75.00 640.00,75.00
             640.00,75.00 603.00,75.00 603.00,75.00
             603.00,75.00 603.00,412.00 603.00,412.00
             603.00,412.00 640.00,412.00 640.00,412.00
             640.00,412.00 640.00,450.00 640.00,450.00
             640.00,450.00 339.00,450.00 339.00,450.00
             339.00,450.00 339.00,602.00 339.00,602.00
             339.00,602.00 414.00,602.00 414.00,602.00
             414.00,602.00 414.00,640.00 414.00,640.00
             414.00,640.00 226.00,640.00 226.00,640.00
             226.00,640.00 226.00,602.00 226.00,602.00
             226.00,602.00 301.00,602.00 301.00,602.00
             301.00,602.00 301.00,450.00 301.00,450.00
             301.00,450.00 0.00,450.00 0.00,450.00
             0.00,450.00 0.00,412.00 0.00,412.00
             0.00,412.00 37.00,412.00 37.00,412.00
             37.00,412.00 37.00,75.00 37.00,75.00
             37.00,75.00 0.00,75.00 0.00,75.00
             0.00,75.00 0.00,37.00 0.00,37.00
             0.00,37.00 301.00,37.00 301.00,37.00
             301.00,37.00 301.00,0.00 301.00,0.00 Z
           M 565.00,75.00
           C 565.00,75.00 75.00,75.00 75.00,75.00
             75.00,75.00 75.00,412.00 75.00,412.00
             75.00,412.00 565.00,412.00 565.00,412.00
             565.00,412.00 565.00,75.00 565.00,75.00 Z
           M 263.00,156.00
           C 263.00,156.00 438.00,243.00 438.00,243.00
             434.02,247.51 263.00,332.00 263.00,332.00
             263.00,332.00 263.00,156.00 263.00,156.00 Z
           M 303.00,220.00
           C 303.00,220.00 302.00,267.00 302.00,267.00
             302.00,267.00 348.00,245.00 348.00,245.00
             348.00,245.00 348.00,243.00 348.00,243.00
             348.00,243.00 303.00,220.00 303.00,220.00 Z" />
</svg>
