<?xml version="1.0" encoding="iso-8859-1"?>
<!-- Generator: Adobe Illustrator 19.0.0, SVG Export Plug-In . SVG Version: 6.00 Build 0)  -->
<svg version="1.1" id="Capa_1" xmlns="http://www.w3.org/2000/svg" xmlns:xlink="http://www.w3.org/1999/xlink" x="0px" y="0px"
	 viewBox="0 0 511.999 511.999" style="enable-background:new 0 0 511.999 511.999;" xml:space="preserve">
<g>
	<g>
		<path fill="white" d="M511.864,221.487c-0.921-11.988-6.455-22.896-15.581-30.716l-44.286-37.96V44.944c0-8.284-6.716-14.999-14.999-14.999
			h-59.998c-8.284,0-14.799,6.716-14.799,14.999v30.728l-75.911-64.695c-16.97-14.539-41.603-14.537-58.519-0.043L15.728,190.769
			c-18.753,16.068-21.186,44.423-4.866,63.473c12.439,14.465,32.364,19.077,49.35,13.107v229.584
			c0,8.284,6.516,14.999,14.799,14.999h361.986c8.284,0,14.999-6.716,14.999-14.999V267.352c17.534,6.2,37.039,1.004,49.167-13.13
			C508.983,245.094,512.784,233.468,511.864,221.487z M391.999,59.943h30.199v67.154l-30.199-25.713V59.943z M317.202,481.934
			H195.007V361.738h122.195V481.934z M422.198,481.934h-75.197V346.939c0-8.284-6.716-14.999-14.999-14.999H180.007
			c-8.284,0-14.799,6.716-14.799,14.999v134.995H90.011V245.775l166.943-141.613l165.245,141.473V481.934z M478.389,234.694
			c-5.318,6.198-14.772,7.107-21.158,1.631L266.765,73.061c-5.595-4.797-13.845-4.817-19.464-0.05
			C243.242,76.453,55.58,235.643,54.786,236.317c-6.282,5.375-15.782,4.642-21.161-1.615c-5.385-6.285-4.657-15.774,1.569-21.11
			L247.238,33.756c5.66-4.848,13.874-4.849,19.53-0.002l209.994,179.795C483.04,218.929,483.767,228.419,478.389,234.694z"/>
	</g>
</g>
<g>
	<g>
		<path fill="white" d="M302.002,179.938h-91.996c-8.284,0-14.799,6.716-14.799,14.999v89.996c0,8.284,6.516,14.999,14.799,14.999h91.996
			c8.284,0,14.999-6.716,14.999-14.999v-89.996C317.002,186.653,310.286,179.938,302.002,179.938z M287.203,269.935h-62.198v-59.998
			h62.198V269.935z"/>
	</g>
</g>
<g>
	<g>
		<circle fill="white" cx="271.999" cy="406.934" r="14.999"/>
	</g>
</g>
</svg>
