<svg xmlns="http://www.w3.org/2000/svg" viewBox="0 0 94.84 94.84"><defs><style>.cls-1{fill:none;}.cls-2{fill:white;}</style></defs><g id="Calque_2" data-name="Calque 2"><g id="land"><g id="land-2" data-name="land"><rect class="cls-1" width="94.84" height="94.84"/><path class="cls-2" d="M82,34.58l-8.91,7.35-7.8-6.13L73.59,29ZM42.58,46.48l-7.65,6.28-8.71-7.18,7.87-6.08Zm-3.5-10.84,8.06-6.23,8.28,6.51-8,6.58Zm8.34,14.81,7.65,6.29-7.65,6.31-7.65-6.31Zm4.84-4,8.11-6.67L68.18,46l-8.27,6.81Zm16-21.12-8,6.54-8.13-6.39,7.59-5.86Zm-20.85-14L54.36,16l-7.19,5.56-6.9-5.42ZM34.89,19.77l7.24,5.7-8,6.14-7.61-6.25Zm-22,14.81L21.25,29l7.94,6.52-7.87,6.08Zm0,20.06L21,49.24,47.42,71,73.85,49.24,82,54.64,47.42,83.09Zm66,10.47L92.36,54l-13.44-9L92.35,34,47.42,3.78,2.49,34,15.93,45.07,2.48,54,15.93,65.11,21,69.28,47.42,91.06,73.85,69.28Z"/></g></g></g></svg>