<?xml version="1.0" encoding="UTF-8"?>
<!DOCTYPE svg PUBLIC "-//W3C//DTD SVG 1.1//EN" "http://www.w3.org/Graphics/SVG/1.1/DTD/svg11.dtd">
<svg xmlns="http://www.w3.org/2000/svg" version="1.1" width="354px" height="354px" style="shape-rendering:geometricPrecision; text-rendering:geometricPrecision; image-rendering:optimizeQuality; fill-rule:evenodd; clip-rule:evenodd" xmlns:xlink="http://www.w3.org/1999/xlink">
<g><path style="opacity:1" fill="#fefffe" d="M 156.5,-0.5 C 169.833,-0.5 183.167,-0.5 196.5,-0.5C 270.084,10.9057 319.918,51.5723 346,121.5C 349.228,133.15 351.728,144.816 353.5,156.5C 353.5,169.833 353.5,183.167 353.5,196.5C 342.094,270.084 301.428,319.918 231.5,346C 219.85,349.228 208.184,351.728 196.5,353.5C 183.167,353.5 169.833,353.5 156.5,353.5C 82.9156,342.094 33.0823,301.428 7,231.5C 3.77193,219.85 1.27193,208.184 -0.5,196.5C -0.5,183.167 -0.5,169.833 -0.5,156.5C 10.9057,82.9156 51.5723,33.0823 121.5,7C 133.15,3.77193 144.816,1.27193 156.5,-0.5 Z M 166.5,29.5 C 233.97,28.5234 282.47,58.19 312,118.5C 329.147,162.903 326.813,206.236 305,248.5C 270.56,303.802 220.727,328.302 155.5,322C 103.322,312.483 65.489,283.983 42,236.5C 23.7797,191.574 25.7797,147.574 48,104.5C 75.0814,59.8761 114.581,34.8761 166.5,29.5 Z M 213.5,88.5 C 214.043,88.56 214.376,88.8933 214.5,89.5C 206.001,117.494 197.501,145.494 189,173.5C 188.439,174.022 187.772,174.355 187,174.5C 180.957,172.228 175.124,169.561 169.5,166.5C 184.595,140.739 199.262,114.739 213.5,88.5 Z"/></g>
<g><path style="opacity:1" fill="#fefffe" d="M 158.5,43.5 C 163.179,43.3342 167.845,43.5008 172.5,44C 177.458,51.415 182.291,58.915 187,66.5C 187.5,58.8406 187.666,51.1739 187.5,43.5C 191.167,43.5 194.833,43.5 198.5,43.5C 198.5,55.8333 198.5,68.1667 198.5,80.5C 193.456,80.8275 188.456,80.4941 183.5,79.5C 178.47,72.3021 173.637,64.9688 169,57.5C 168.5,65.1594 168.334,72.8261 168.5,80.5C 165.167,80.5 161.833,80.5 158.5,80.5C 158.5,68.1667 158.5,55.8333 158.5,43.5 Z"/></g>
<g><path style="opacity:1" fill="#fefffe" d="M 225.5,53.5 C 228.491,53.5782 230.491,54.9115 231.5,57.5C 218.566,99.8033 205.732,142.137 193,184.5C 170,222.5 147,260.5 124,298.5C 135.666,255.181 147.666,211.847 160,168.5C 182.351,130.465 204.185,92.1312 225.5,53.5 Z M 213.5,88.5 C 199.262,114.739 184.595,140.739 169.5,166.5C 175.124,169.561 180.957,172.228 187,174.5C 187.772,174.355 188.439,174.022 189,173.5C 197.501,145.494 206.001,117.494 214.5,89.5C 214.376,88.8933 214.043,88.56 213.5,88.5 Z"/></g>
<g><path style="opacity:1" fill="#fefffe" d="M 85.5,79.5 C 93.6417,79.4807 96.8084,83.4807 95,91.5C 91.5796,95.7532 87.4129,96.5865 82.5,94C 78.6431,88.2505 79.6431,83.4172 85.5,79.5 Z"/></g>
<g><path style="opacity:1" fill="#fefffe" d="M 264.5,79.5 C 270.932,80.4276 273.765,84.0942 273,90.5C 268.408,96.6791 263.408,97.0124 258,91.5C 256.305,85.2125 258.472,81.2125 264.5,79.5 Z"/></g>
<g><path style="opacity:1" fill="#fefffe" d="M 47.5,168.5 C 58.5718,168.215 61.5718,173.049 56.5,183C 46.3203,186.66 42.1537,183.16 44,172.5C 44.6897,170.65 45.8564,169.316 47.5,168.5 Z"/></g>
<g><path style="opacity:1" fill="#fefffe" d="M 298.5,168.5 C 309.182,168.347 312.182,173.18 307.5,183C 296.681,186.516 292.514,182.683 295,171.5C 296.145,170.364 297.312,169.364 298.5,168.5 Z"/></g>
<g><path style="opacity:1" fill="#fefffe" d="M 84.5,257.5 C 90.6768,256.509 94.6768,259.009 96.5,265C 94.6834,271.745 90.3501,274.078 83.5,272C 78.0028,266.683 78.3361,261.85 84.5,257.5 Z"/></g>
<g><path style="opacity:1" fill="#fefffe" d="M 261.5,257.5 C 270.88,256.653 274.38,260.653 272,269.5C 266.885,275.075 262.219,274.742 258,268.5C 256.662,263.96 257.829,260.293 261.5,257.5 Z"/></g>
<g><path style="opacity:1" fill="#fefffe" d="M 171.5,294.5 C 183.16,292.682 186.827,297.182 182.5,308C 178.219,310.109 174.052,309.942 170,307.5C 167.743,302.805 168.243,298.472 171.5,294.5 Z"/></g>
</svg>
