<?xml version="1.0" standalone="no"?>
<!DOCTYPE svg PUBLIC "-//W3C//DTD SVG 20010904//EN"
 "http://www.w3.org/TR/2001/REC-SVG-20010904/DTD/svg10.dtd">
<svg version="1.0" xmlns="http://www.w3.org/2000/svg"
 width="512.000000pt" height="512.000000pt" viewBox="0 0 512.000000 512.000000"
 preserveAspectRatio="xMidYMid meet">
<metadata>
Created by potrace 1.16, written by Peter Selinger 2001-2019
</metadata>
<g transform="translate(0.000000,512.000000) scale(0.100000,-0.100000)"
fill="#000000" stroke="none">
<path d="M2410 4970 l0 -150 -1205 0 -1205 0 0 -150 0 -150 150 0 150 0 0
-1350 0 -1350 -150 0 -150 0 0 -150 0 -150 1205 0 1205 0 0 -610 0 -610 -300
0 -300 0 0 -150 0 -150 750 0 750 0 0 150 0 150 -300 0 -300 0 0 610 0 610
1205 0 1205 0 0 150 0 150 -150 0 -150 0 0 1350 0 1350 150 0 150 0 0 150 0
150 -1205 0 -1205 0 0 150 0 150 -150 0 -150 0 0 -150z m2110 -1800 l0 -1350
-1960 0 -1960 0 0 1350 0 1350 1960 0 1960 0 0 -1350z"/>
<path d="M2110 3170 l0 -700 695 347 c382 192 695 350 695 353 0 3 -313 161
-695 353 l-695 347 0 -700z m690 0 c0 -3 -88 -49 -195 -103 l-195 -97 0 200 0
200 195 -97 c107 -54 195 -100 195 -103z"/>
</g>
</svg>
