<svg height="511pt" viewBox="-11 1 511 511.999" width="511pt" xmlns="http://www.w3.org/2000/svg">
<path fill="white" d="m466.652344 349.828125-28.074219-14.035156-135.402344 67.703125c-16.09375 8.046875-36.585937 12.480468-57.703125 12.484375-21.113281 0-41.605468-4.433594-57.699218-12.480469l-135.410157-67.707031-28.074219 14.035156c-15.121093 7.5625-23.789062 19.300781-23.789062 32.207031 0 12.902344 8.671875 24.640625 23.789062 32.199219l176.902344 88.453125c12.417969 6.207031 28.347656 9.3125 44.28125 9.3125 15.933594-.003906 31.867188-3.105469 44.28125-9.3125l176.898438-88.449219c15.121094-7.5625 23.792968-19.296875 23.792968-32.203125s-8.671874-24.644531-23.792968-32.207031zm0 0"/>
<path fill="white"  d="m466.652344 223.808594-28.074219-14.039063-135.40625 67.707031c-16.121094 8.0625-36.613281 12.5-57.699219 12.5-21.085937 0-41.578125-4.4375-57.699218-12.5l-135.40625-67.707031-28.078126 14.039063c-15.117187 7.558594-23.789062 19.296875-23.789062 32.203125 0 12.902343 8.671875 24.640625 23.789062 32.199219l176.902344 88.453124c12.417969 6.207032 28.347656 9.3125 44.28125 9.3125 15.933594-.003906 31.867188-3.105468 44.28125-9.3125l176.898438-88.449218c15.121094-7.5625 23.792968-19.296875 23.792968-32.203125s-8.675781-24.644531-23.792968-32.203125zm0 0"/>
<path fill="white"  d="m24.289062 162.1875 176.902344 88.453125c12.035156 6.019531 27.761719 9.335937 44.28125 9.335937 16.519532 0 32.246094-3.316406 44.28125-9.335937l176.894532-88.449219c15.121093-7.5625 23.796874-19.296875 23.796874-32.203125s-8.671874-24.644531-23.792968-32.207031l-176.894532-88.445312c-12.039062-6.019532-27.765624-9.335938-44.285156-9.335938-16.519531 0-32.246094 3.316406-44.28125 9.335938l-176.902344 88.445312c-15.121093 7.5625-23.789062 19.300781-23.789062 32.207031s8.671875 24.640625 23.789062 32.199219zm0 0"/></svg>