<svg height="512pt" viewBox="0 -20 512 512" width="512pt" 
    xmlns="http://www.w3.org/2000/svg">
    <g fill-rule="evenodd">
        <path fill="white" d="m500.605469 38.894531-155.3125-38.453125c-2.257813-.5625-4.617188-.585937-6.890625-.074218l-162.238282 36.421874-157.792968-36.402343c-4.453125-1.03125-9.132813.03125-12.710938 2.878906-3.574218 2.84375-5.660156 7.164063-5.660156 11.738281v404.5625c0 6.988282 4.828125 13.054688 11.640625 14.617188l160.667969 36.917968c2.183594.503907 4.449218.511719 6.632812.023438l162.574219-36.367188 151.878906 37.605469c1.191407.296875 2.402344.4375 3.605469.4375 3.316406 0 6.578125-1.097656 9.246094-3.1875 3.632812-2.84375 5.753906-7.199219 5.753906-11.8125v-404.34375c0-6.898437-4.703125-12.90625-11.394531-14.5625zm-18.605469 399.742188-136.707031-33.847657c-2.253907-.5625-4.609375-.585937-6.878907-.078124l-162.703124 36.390624-145.710938-33.480468v-373.765625l142.746094 32.933593c2.1875.507813 4.464844.511719 6.65625.019532l162.117187-36.394532 140.480469 34.78125zm0 0"/>
        <path fill="white" d="m145 154.246094c0-8.257813-6.738281-15-15-15s-15 6.742187-15 15c0 8.261718 6.738281 15 15 15s15-6.738282 15-15zm0 0"/>
        <path fill="white" d="m312 287.246094c0 10.75 3.378906 23.964844 9.425781 37.742187l-162.207031-85.867187c7.550781-7.425782 13.875-16.179688 18.179688-22.824219 14.152343-21.832031 22.601562-45.03125 22.601562-62.050781 0-38.597656-31.402344-70-70-70s-70 31.402344-70 70c0 17.019531 8.449219 40.21875 22.601562 62.050781 7.632813 11.777344 21.609376 30.167969 37.496094 36.058594 0 0 249.746094 132.136719 250.433594 132.378906 3.726562 1.582031 7.570312 2.511719 11.46875 2.511719 19.839844 0 38.214844-23.777344 47.402344-37.949219 14.148437-21.832031 22.597656-45.03125 22.597656-62.050781 0-38.597656-31.402344-70-70-70s-70 31.402344-70 70zm-222-133c0-22.054688 17.945312-40 40-40 22.058594 0 40 17.945312 40 40 0 10.449218-6.40625 27.5-16.320312 43.445312-10.652344 17.128906-20.183594 24.925782-23.679688 26.398438-3.5-1.472656-13.027344-9.269532-23.679688-26.398438-9.914062-15.945312-16.320312-32.996094-16.320312-43.445312zm292 93c22.058594 0 40 17.945312 40 40 0 10.449218-6.40625 27.5-16.320312 43.441406-10.621094 17.078125-20.117188 24.878906-23.644532 26.382812l-1.777344-.9375c-4.355468-2.796874-12.722656-10.621093-21.9375-25.441406-9.914062-15.945312-16.320312-32.996094-16.320312-43.445312 0-22.054688 17.945312-40 40-40zm0 0"/>
        <path fill="white" d="m382 302.246094c8.261719 0 15-6.738282 15-15 0-8.261719-6.738281-15-15-15s-15 6.738281-15 15c0 8.261718 6.738281 15 15 15zm0 0"/>
    </g>
</svg>