<?xml version="1.0" encoding="UTF-8" standalone="no"?>
<!-- Created with Inkscape (http://www.inkscape.org/) -->

<svg
   xmlns:dc="http://purl.org/dc/elements/1.1/"
   xmlns:cc="http://creativecommons.org/ns#"
   xmlns:rdf="http://www.w3.org/1999/02/22-rdf-syntax-ns#"
   xmlns:svg="http://www.w3.org/2000/svg"
   xmlns="http://www.w3.org/2000/svg"
   xmlns:sodipodi="http://sodipodi.sourceforge.net/DTD/sodipodi-0.dtd"
   xmlns:inkscape="http://www.inkscape.org/namespaces/inkscape"
   width="210mm"
   height="297mm"
   viewBox="0 0 210 297"
   version="1.1"
   id="svg8"
   inkscape:version="0.92.4 (unknown)"
   sodipodi:docname="LayerControls.svg">
  <defs
     id="defs2" />
  <sodipodi:namedview
     id="base"
     pagecolor="#ffffff"
     bordercolor="#666666"
     borderopacity="1.0"
     inkscape:pageopacity="0.0"
     inkscape:pageshadow="2"
     inkscape:zoom="0.49497475"
     inkscape:cx="-169.12709"
     inkscape:cy="544.93692"
     inkscape:document-units="mm"
     inkscape:current-layer="layer1"
     showgrid="false"
     inkscape:window-width="1853"
     inkscape:window-height="1145"
     inkscape:window-x="67"
     inkscape:window-y="27"
     inkscape:window-maximized="1" />
  <metadata
     id="metadata5">
    <rdf:RDF>
      <cc:Work
         rdf:about="">
        <dc:format>image/svg+xml</dc:format>
        <dc:type
           rdf:resource="http://purl.org/dc/dcmitype/StillImage" />
        <dc:title></dc:title>
      </cc:Work>
    </rdf:RDF>
  </metadata>
  <g
     inkscape:label="Calque 1"
     inkscape:groupmode="layer"
     id="layer1">
    <path
       id="path815"
       d="m 192.25355,135.23032 c 0,-4.55303 -3.05924,-8.69404 -8.39363,-11.36054 l -21.73579,-10.86859 21.73579,-10.86997 c 5.33439,-2.666502 8.39363,-6.806128 8.39501,-11.359167 0,-4.553038 -3.05924,-8.694043 -8.39501,-11.361925 L 121.45546,48.208587 c -4.24573,-2.123558 -9.79371,-3.293512 -15.62282,-3.293512 -5.82772,0 -11.375698,1.169954 -15.621438,3.293512 L 27.805365,79.410128 c -5.334387,2.667882 -8.393631,6.808887 -8.393631,11.361925 0,4.553039 3.059244,8.692665 8.393631,11.360547 l 21.737174,10.86859 -21.737174,10.86859 c -5.334387,2.6665 -8.393631,6.80751 -8.393631,11.36054 0,4.55304 3.059244,8.69267 8.393631,11.36056 l 21.735796,10.86858 -21.737175,10.86721 c -5.333008,2.66788 -8.392252,6.80889 -8.392252,11.36193 0,4.55304 3.059244,8.69404 8.393631,11.36053 l 62.405837,31.2043 c 4.38079,2.18971 10.000428,3.28387 15.621438,3.28387 5.62102,0 11.24204,-1.09415 15.62282,-3.28387 l 62.40446,-31.2043 c 5.33439,-2.6665 8.39363,-6.80749 8.39363,-11.36054 0,-4.55304 -3.05924,-8.69405 -8.39363,-11.36193 l -21.73579,-10.8672 21.73579,-10.86858 c 5.33439,-2.66789 8.39363,-6.80752 8.39363,-11.36056 z M 30.037786,90.772053 c 0.195682,-0.329351 0.880567,-1.084516 2.50114,-1.894802 l 62.405836,-31.20292 c 2.76435,-1.382172 6.733098,-2.175922 10.887878,-2.175922 4.15617,0 8.12492,0.79375 10.88926,2.175922 l 62.40446,31.20292 c 1.62057,0.810286 2.30546,1.565451 2.50114,1.894802 -0.19568,0.327974 -0.88057,1.083139 -2.50114,1.893425 L 116.7219,123.86978 c -2.76434,1.38217 -6.73309,2.17454 -10.88926,2.17454 -4.15478,0 -8.123528,-0.79237 -10.887878,-2.17454 L 32.537547,92.665478 C 30.918353,91.855192 30.233468,91.100027 30.037786,90.772053 Z M 179.12774,177.79379 c 1.62057,0.81029 2.30546,1.56546 2.50114,1.89481 -0.19706,0.32797 -0.88057,1.08314 -2.50252,1.89342 l -62.40446,31.2043 c -5.80016,2.89939 -15.97697,2.89939 -21.777138,0 l -62.407215,-31.2043 c -1.620573,-0.81028 -2.304079,-1.56545 -2.499761,-1.89342 0.195682,-0.32935 0.879188,-1.08452 2.499761,-1.89481 l 28.836829,-14.41841 28.836826,14.41841 c 4.38079,2.19109 10.000428,3.28663 15.621438,3.28525 5.62102,0 11.24342,-1.09554 15.62282,-3.28525 l 28.83545,-14.41841 z m 0,-40.67004 -62.40584,31.20292 c -5.80016,2.90215 -15.97697,2.90077 -21.777138,0 L 32.537547,137.12375 c -1.619194,-0.81029 -2.304079,-1.56545 -2.499761,-1.89343 0.195682,-0.32935 0.879188,-1.08451 2.499761,-1.89342 l 28.836829,-14.41979 28.836826,14.41979 c 4.24574,2.12218 9.793718,3.29213 15.621438,3.29213 5.82773,0 11.37571,-1.16995 15.62282,-3.29213 l 28.83545,-14.41979 28.83683,14.41979 c 1.61919,0.80891 2.30408,1.56407 2.49976,1.89342 -0.19568,0.32798 -0.87919,1.08314 -2.49976,1.89343 z m 0,0"
       inkscape:connector-curvature="0"
       style="stroke-width:0.35277778;fill:#ffffff;fill-opacity:1" />
  </g>
</svg>
